<svg xmlns="http://www.w3.org/2000/svg" id="Layer_2" data-name="Layer 2" viewBox="0 0 96.62 33.92"><defs><style>      .cls-1 {        fill: #f36c25;      }      .cls-2 {        fill: #fff;      }    </style></defs><g id="Layer_1-2" data-name="Layer 1"><g><g><g><path class="cls-2" d="M37,10.84h10.66v4.2h-10.66v4.75h12.06v4.17h-16.87V1.7h16.87v4.17h-12.06v4.96Z"></path><g><polygon class="cls-2" points="58.34 23.96 58.34 14.95 68.96 14.95 68.96 10.78 53.5 10.78 53.5 23.96 58.34 23.96"></polygon><rect class="cls-1" x="53.5" y="1.7" width="16.87" height="4.17"></rect></g><path class="cls-2" d="M96.3,13.36c.36,14.78-24.12,14.02-23.68-.52-.34-11.31,16.24-15.75,22.07-6.18l-4.14,2.41c-3.64-6.01-13.28-3.11-13.15,3.78-.36,7.44,11.3,9.88,13.7,2.95h-8.31v-4.23h13.46c.03.61.06,1.31.06,1.8Z"></path></g><g><g><path class="cls-1" d="M26.03,12.26C25.91,3.04,15.06-3.04,7.17,1.58c20.55-6.98,19.5,27.2-.57,18.97,4.47,9.38,20.82,2.56,19.43-8.29Z"></path><path class="cls-1" d="M21.53,17.41c.07,4.61-7.18,4.61-7.11,0-.07-4.61,7.18-4.61,7.11,0Z"></path></g><g><path class="cls-2" d="M.08,13.68c.12,9.21,10.97,15.3,18.86,10.67C-1.61,31.34-.56-2.85,19.51,5.38,15.05-4-1.31,2.83.08,13.68Z"></path><path class="cls-2" d="M12.58,8.42c.07,4.61-7.18,4.61-7.11,0-.07-4.61,7.18-4.61,7.11,0Z"></path></g></g></g><g><g><path class="cls-2" d="M41.35,29.15v.63h-1.99v1.38h1.55v.63h-1.55v2.05h-.77v-4.69h2.76Z"></path><path class="cls-2" d="M44.59,29.15v4.69h-.77v-4.69h.77Z"></path><path class="cls-2" d="M49.78,33.83l-1.08-1.87h-.59v1.87h-.77v-4.69c.6.04,2.02-.12,2.53.19,1.14.52.92,2.33-.34,2.55l1.16,1.94h-.92ZM48.12,31.34c2.3.4,2.32-1.98,0-1.57v1.57Z"></path><path class="cls-2" d="M54.06,33.71c-.49-.21-.81-.63-.81-1.18h.82c.17,1.53,2.77.19,1.2-.61-.57-.23-1.42-.27-1.8-.81-1.22-2.06,2.85-2.95,3.01-.76h-.85c-.23-1.38-2.6-.14-1.11.61,2.99.21,2.33,3.7-.45,2.75Z"></path><path class="cls-2" d="M62.21,29.15v.63h-1.25v4.06h-.77v-4.06h-1.25v-.63h3.27Z"></path><path class="cls-2" d="M70.29,30.49c-1.14-1.83-3.7.16-2.65,1.88.63,1.26,2.79.99,2.9-.5h-1.76v-.61h2.58c.38,2.47-3.2,3.61-4.39,1.45-1.71-2.82,2.99-5.26,4.25-2.22h-.92Z"></path><path class="cls-2" d="M76.3,33.83l-1.08-1.87h-.59v1.87h-.77v-4.69c.6.04,2.02-.12,2.53.19,1.14.52.92,2.33-.34,2.55l1.16,1.94h-.92ZM74.63,31.34c2.3.4,2.32-1.98,0-1.57v1.57Z"></path><path class="cls-2" d="M80.81,33.57c-2.72-1.52-.29-5.77,2.41-4.18,2.71,1.52.29,5.77-2.41,4.18ZM82.84,33c1.76-1.08.28-4.15-1.66-3.03-1.76,1.07-.27,4.16,1.66,3.03Z"></path><path class="cls-2" d="M87.68,29.15c.22.93-.7,4.21,1.06,4.06,1.77.17.85-3.13,1.07-4.06h.77c-.1,1.5.65,4.9-1.84,4.73-2.47.17-1.71-3.25-1.82-4.73h.77Z"></path><path class="cls-2" d="M96.43,31.22c-.4.8-1.54.73-2.34.71v1.9h-.77v-4.69c1.38-.15,4.03.02,3.11,2.07ZM95.59,31.11c.82-1.08-.59-1.51-1.5-1.33v1.53c.38-.02,1.24.09,1.5-.2Z"></path></g><g><path class="cls-2" d="M1.29,29.77v1.38h1.62v.63h-1.62v1.44h1.82v.63H.52v-4.69h2.59v.63h-1.82Z"></path><path class="cls-2" d="M9.84,29.15l-1.76,4.69h-.89l-1.77-4.69h.82l1.39,3.9,1.4-3.9h.81Z"></path><path class="cls-2" d="M13.01,29.77v1.38h1.62v.63h-1.62v1.44h1.82v.63h-2.59v-4.69h2.59v.63h-1.82Z"></path><path class="cls-2" d="M21.37,33.83h-.77l-2.31-3.5v3.5h-.77v-4.69h.77l2.31,3.49v-3.49h.77v4.69Z"></path><path class="cls-2" d="M27.16,29.15v.63h-1.25v4.06h-.77v-4.06h-1.25v-.63h3.27Z"></path><path class="cls-2" d="M30.33,33.71c-.49-.21-.81-.63-.81-1.18h.82c.17,1.53,2.77.19,1.2-.61-.57-.23-1.42-.27-1.8-.81-1.22-2.06,2.85-2.95,3.01-.76h-.85c-.23-1.38-2.6-.14-1.11.61,2.99.21,2.33,3.7-.45,2.75Z"></path></g></g></g></g></svg>