<?xml version="1.0" encoding="UTF-8"?>
<svg id="Layer_2" data-name="Layer 2" xmlns="http://www.w3.org/2000/svg" xmlns:xlink="http://www.w3.org/1999/xlink" viewBox="0 0 143.8 99.38">
  <defs>
    <style>
      .cls-1 {
        fill: url(#New_Gradient_Swatch_1-2);
      }

      .cls-2 {
        fill: none;
        stroke: url(#New_Gradient_Swatch_1);
        stroke-miterlimit: 10;
      }

      .cls-text {
        fill: #ffffff;
      }
    </style>
    <linearGradient id="New_Gradient_Swatch_1" data-name="New Gradient Swatch 1" x1="65.18" y1="35.84" x2="72.49" y2="35.84" gradientUnits="userSpaceOnUse">
      <stop offset="0" stop-color="#0098ff"/>
      <stop offset="1" stop-color="#00f1e6"/>
    </linearGradient>
    <linearGradient id="New_Gradient_Swatch_1-2" data-name="New Gradient Swatch 1" x1="40.25" y1="36.58" x2="103.55" y2="36.58" xlink:href="#New_Gradient_Swatch_1"/>
  </defs>
  <g id="Layer_1-2" data-name="Layer 1">
    <g>
      <g>
        <path class="cls-2" d="M72.32,45.27h-6.33l3.89-7.79c-2.27-.81-3.89-2.98-3.89-5.54,0-3.25,2.75-5.54,6-5.54.16,0,.31,0,.46.02"/>
        <path class="cls-1" d="M87.82,6.21l-.42-.17-2.81,4.23-11.72-4.7V1.39l6.98,2.79c0,.06,0,.12,0,.18,0,1.06.86,1.92,1.92,1.92s1.92-.86,1.92-1.92-.86-1.92-1.92-1.92c-.59,0-1.14.27-1.5.73l-7.93-3.17-31.23,12.51.02.39c.19,4.01.32,7.62.44,11.01-.78.26-1.31.99-1.31,1.82,0,1.06.86,1.91,1.92,1.91s1.91-.86,1.91-1.91c0-.88-.6-1.64-1.44-1.86-.11-3.05-.23-6.32-.39-9.86l8.23,6.34c.39,8.44.41,14.78,1.2,19.91-.66.32-1.07.99-1.07,1.72,0,1.06.85,1.92,1.91,1.92,1.06,0,1.92-.86,1.92-1.92,0-.97-.73-1.79-1.7-1.9-.75-4.94-.79-11.19-1.17-19.46l.21-.27,4.45-1.79c.36.46.92.73,1.5.73,1.06,0,1.92-.86,1.92-1.92s-.86-1.91-1.92-1.91-1.92.86-1.92,1.91c0,.06,0,.12.01.18l-4.73,1.9-8.35-6.44L71.78,1.39v4.18l-17.05,6.84c-.36-.46-.92-.73-1.51-.73-1.06,0-1.92.86-1.92,1.92s.86,1.92,1.92,1.92,1.92-.86,1.92-1.92c0-.06,0-.12-.01-.18l4.26-1.71,3,4.63,9.94-4.22v14.8c2.78.22,4.96,2.53,4.96,5.36,0,2.36-1.53,4.34-3.64,5.07h.06l3.58,7.45h-4.96v16.23c-10.74-4.98-15.61-9.03-17.96-14.71l-.07-.2-4.16,2.16c-.73-1.81-1.27-3.76-1.67-5.93-.85-4.65-1.08-10.31-1.34-17.35.78-.26,1.3-.99,1.3-1.81,0-1.06-.86-1.92-1.92-1.92-1.06,0-1.92.86-1.92,1.92,0,.87.6,1.64,1.44,1.86.1,2.74.21,5.29.34,7.63l-4.41-.04v.29c.61,9.99,1.84,17.17,6.12,23.29,4.27,6.12,11.52,11.1,24.03,16.86l.23.1.23-.1c3.72-1.71,6.95-3.36,9.8-4.99.36.34.83.53,1.32.53,1.06,0,1.92-.86,1.92-1.92s-.86-1.92-1.92-1.92-1.92.86-1.92,1.92c0,.15.02.3.06.45-2.61,1.49-5.58,3-8.94,4.57v-4.13c5.37-2.49,9.59-4.83,12.92-7.22l2.43,4,.15-.11c7.61-5.54,11.13-11.42,12.84-19.36,1.71-7.94,1.68-17.94,2.34-31.97l.02-.39-15.74-6.31ZM71.78,11.16l-9.11,3.65-2.25-3.52,11.37-4.56v4.43ZM43.11,33.71l3.32.03c.2,3.25.48,6.15.97,8.79.42,2.25.99,4.31,1.78,6.23l-3.02,1.58c-1.84-4.57-2.6-9.91-3.04-16.64ZM48.96,55.57c-.94-1.34-1.72-2.74-2.38-4.22l3.02-1.58c.73,1.58,1.61,3.07,2.71,4.49-.21.32-.32.68-.32,1.06,0,1.06.86,1.92,1.92,1.91,1.06,0,1.92-.86,1.92-1.91s-.86-1.92-1.92-1.92c-.26,0-.52.06-.76.16-1.05-1.36-1.9-2.78-2.59-4.29l3.2-1.68c1.39,2.95,3.51,5.48,6.72,7.92l-4.38,7.24c-3.06-2.31-5.38-4.66-7.14-7.19ZM71.78,66.35c-2.05-.96-3.94-1.89-5.66-2.81.03-.13.04-.27.04-.41,0-1.06-.86-1.92-1.92-1.92-1.06,0-1.92.86-1.92,1.92s.86,1.92,1.92,1.92c.51,0,.99-.2,1.35-.56,1.87,1.01,3.93,2.02,6.18,3.07v4.14c-6.2-2.89-11.03-5.58-14.8-8.3l4.38-7.24c2.7,1.92,6.11,3.81,10.43,5.81v4.38ZM85.02,11.6l5.24,2.1c0,.06-.01.12-.01.18,0,1.06.86,1.92,1.92,1.92s1.92-.86,1.92-1.92-.86-1.92-1.92-1.92c-.59,0-1.14.27-1.5.73l-5.05-2.02,2.13-3.33,14.16,5.67-8.35,6.44-10.8-4.33,2.26-3.52ZM72.87,11.16v-4.43l11.13,4.46-2.26,3.52-8.87-3.56ZM72.87,66.35v-4.38c4.3-2,7.7-3.88,10.4-5.81l1.96,3.24c-3.16,2.28-7.19,4.53-12.35,6.95ZM88.51,62.76l-1.85-3.06c4.03-3.06,6.64-6.24,8.35-9.97l3.02,1.58c-1.91,4.29-4.86,7.91-9.51,11.45ZM101.57,32.7l-3.31-.03c.15-2.56.26-5.41.38-8.45.85-.21,1.45-.98,1.45-1.86,0-1.06-.86-1.92-1.92-1.92-1.06,0-1.92.86-1.92,1.92,0,.82.53,1.55,1.3,1.82-.29,7.51-.54,13.49-1.47,18.36-.99.08-1.77.91-1.77,1.91,0,1.06.86,1.92,1.92,1.92,1.06,0,1.92-.86,1.92-1.92,0-.7-.39-1.35-1.01-1.68.52-2.69.83-5.67,1.05-9.01l3.31.03c-.28,4.07-.68,7.67-1.36,10.85-.44,2.03-.99,3.9-1.69,5.66l-3.98-2.01-.15.33c-1.61,3.82-4.14,7.03-8.22,10.14l-1.96-3.24c3.58-2.73,5.8-5.58,7.18-9.01,2.48-6.14,2.29-13.97,2.86-26.16l8.23-6.34c-.33,7.22-.5,13.39-.83,18.69Z"/>
      </g>
      <g class="cls-text">
        <path d="M4.55,94.35l-.36.28c-.2-.26-.44-.45-.71-.59s-.58-.2-.92-.2c-.36,0-.7.09-1.01.26s-.55.41-.72.7c-.17.29-.26.62-.26.99,0,.56.19,1.02.57,1.39s.86.56,1.44.56c.64,0,1.17-.25,1.6-.75l.36.27c-.23.29-.51.51-.85.67-.34.16-.72.24-1.14.24-.8,0-1.42-.27-1.88-.8-.39-.45-.58-.99-.58-1.62,0-.67.23-1.23.7-1.68s1.05-.68,1.76-.68c.42,0,.81.08,1.15.25.34.17.62.4.84.71Z"/>
        <path d="M5.51,94.69h.46l1.16,2.59,1.12-2.59h.46l-2.01,4.6h-.46l.65-1.49-1.38-3.11Z"/>
        <path d="M9.77,98.06v-4.67h.43v1.88c.18-.22.38-.39.61-.5.22-.11.47-.17.74-.17.48,0,.88.17,1.22.52s.51.77.51,1.26-.17.9-.51,1.25c-.34.34-.75.52-1.23.52-.27,0-.52-.06-.75-.18s-.42-.29-.59-.53v.62h-.43ZM11.51,97.73c.24,0,.46-.06.67-.18.2-.12.37-.29.49-.5.12-.21.18-.44.18-.68s-.06-.47-.18-.68c-.12-.22-.28-.39-.49-.51-.21-.12-.42-.18-.66-.18s-.46.06-.67.18c-.21.12-.38.28-.49.49-.11.2-.17.43-.17.69,0,.39.13.72.38.98.26.26.57.39.95.39Z"/>
        <path d="M17.38,96.94l.37.19c-.12.24-.26.43-.42.57-.16.14-.33.25-.53.33s-.42.11-.67.11c-.55,0-.98-.18-1.29-.54-.31-.36-.46-.77-.46-1.22,0-.43.13-.81.39-1.14.33-.42.78-.64,1.34-.64s1.03.22,1.38.65c.24.31.37.69.37,1.15h-3.03c0,.39.13.71.38.96.24.25.54.38.9.38.17,0,.34-.03.5-.09.16-.06.3-.14.41-.24.11-.1.24-.26.37-.48ZM17.38,96.04c-.06-.23-.14-.42-.25-.55-.11-.14-.26-.25-.44-.33-.18-.08-.37-.13-.57-.13-.33,0-.61.11-.85.32-.17.15-.31.39-.39.7h2.51Z"/>
        <path d="M18.98,94.69h.44v.49c.13-.19.27-.34.42-.44s.3-.14.46-.14c.12,0,.25.04.38.11l-.23.37c-.09-.04-.17-.06-.23-.06-.14,0-.28.06-.42.18s-.24.3-.31.55c-.05.19-.08.58-.08,1.16v1.14h-.44v-3.37Z"/>
        <path d="M23.85,93.51h.91c.5,0,.85.02,1.03.06.27.06.49.19.66.4.17.2.25.45.25.75,0,.25-.06.47-.17.65-.12.19-.28.33-.5.43s-.52.15-.9.15l1.64,2.11h-.56l-1.64-2.11h-.26v2.11h-.46v-4.55ZM24.31,93.95v1.55h.78c.3,0,.53-.02.67-.08.15-.06.26-.15.34-.28s.12-.27.12-.43-.04-.29-.12-.42c-.08-.12-.19-.21-.33-.27s-.36-.08-.67-.08h-.8Z"/>
        <path d="M30.92,96.94l.37.19c-.12.24-.26.43-.42.57-.16.14-.33.25-.53.33s-.42.11-.67.11c-.55,0-.98-.18-1.29-.54-.31-.36-.46-.77-.46-1.22,0-.43.13-.81.39-1.14.33-.42.78-.64,1.34-.64s1.03.22,1.38.65c.24.31.37.69.37,1.15h-3.03c0,.39.13.71.38.96.24.25.54.38.9.38.17,0,.34-.03.5-.09.16-.06.3-.14.41-.24.11-.1.24-.26.37-.48ZM30.92,96.04c-.06-.23-.14-.42-.25-.55-.11-.14-.26-.25-.44-.33-.18-.08-.37-.13-.57-.13-.33,0-.61.11-.85.32-.17.15-.31.39-.39.7h2.51Z"/>
        <path d="M34.37,95.06l-.28.29c-.23-.23-.46-.34-.68-.34-.14,0-.26.05-.36.14s-.15.2-.15.33c0,.11.04.21.12.31.08.1.26.22.52.36.32.17.54.33.66.48.11.16.17.33.17.53,0,.28-.1.51-.29.7s-.44.29-.73.29c-.19,0-.38-.04-.56-.13-.18-.08-.32-.2-.44-.35l.27-.31c.22.25.46.37.7.37.17,0,.32-.06.44-.17s.18-.24.18-.39c0-.12-.04-.23-.12-.33-.08-.09-.26-.21-.55-.36-.3-.16-.51-.31-.62-.46-.11-.15-.17-.33-.17-.52,0-.26.09-.47.26-.64.17-.17.4-.25.66-.25.31,0,.62.15.94.46Z"/>
        <path d="M35.76,93.31c.1,0,.18.04.25.11.07.07.1.15.1.25s-.03.18-.1.25c-.07.07-.15.11-.25.11s-.18-.04-.25-.11c-.07-.07-.11-.15-.11-.25s.04-.18.11-.25c.07-.07.15-.11.25-.11ZM35.55,94.69h.43v3.37h-.43v-3.37Z"/>
        <path d="M37.29,93.39h.43v4.67h-.43v-4.67Z"/>
        <path d="M39.25,93.31c.1,0,.18.04.25.11.07.07.1.15.1.25s-.03.18-.1.25c-.07.07-.15.11-.25.11s-.18-.04-.25-.11c-.07-.07-.11-.15-.11-.25s.04-.18.11-.25c.07-.07.15-.11.25-.11ZM39.04,94.69h.43v3.37h-.43v-3.37Z"/>
        <path d="M43.68,96.94l.37.19c-.12.24-.26.43-.42.57-.16.14-.33.25-.53.33s-.42.11-.67.11c-.55,0-.98-.18-1.29-.54-.31-.36-.46-.77-.46-1.22,0-.43.13-.81.39-1.14.33-.42.78-.64,1.34-.64s1.03.22,1.38.65c.24.31.37.69.37,1.15h-3.03c0,.39.13.71.38.96.24.25.54.38.9.38.17,0,.34-.03.5-.09.16-.06.3-.14.41-.24.11-.1.24-.26.37-.48ZM43.68,96.04c-.06-.23-.14-.42-.25-.55-.11-.14-.26-.25-.44-.33-.18-.08-.37-.13-.57-.13-.33,0-.61.11-.85.32-.17.15-.31.39-.39.7h2.51Z"/>
        <path d="M45.44,94.69h.43v.6c.17-.23.37-.4.58-.52s.44-.17.69-.17.47.06.67.19.34.3.43.52.14.55.14,1.01v1.73h-.43v-1.61c0-.39-.02-.65-.05-.78-.05-.22-.15-.39-.29-.5-.14-.11-.33-.17-.56-.17-.26,0-.5.09-.7.26-.21.17-.34.39-.41.64-.04.17-.06.47-.06.92v1.24h-.43v-3.37Z"/>
        <path d="M53.05,95.39l-.34.21c-.3-.39-.7-.59-1.21-.59-.41,0-.75.13-1.02.4-.27.26-.41.58-.41.96,0,.25.06.48.19.69.12.22.3.38.51.5.22.12.46.18.73.18.5,0,.9-.2,1.21-.59l.34.23c-.16.24-.38.43-.65.56s-.58.2-.93.2c-.53,0-.97-.17-1.33-.51-.35-.34-.53-.75-.53-1.24,0-.33.08-.63.25-.91s.39-.5.68-.65c.29-.16.61-.24.96-.24.22,0,.44.03.64.1.21.07.38.16.53.27s.27.25.37.42Z"/>
        <path d="M57.2,96.94l.37.19c-.12.24-.26.43-.42.57-.16.14-.33.25-.53.33s-.42.11-.67.11c-.55,0-.98-.18-1.29-.54-.31-.36-.46-.77-.46-1.22,0-.43.13-.81.39-1.14.33-.42.78-.64,1.34-.64s1.03.22,1.38.65c.24.31.37.69.37,1.15h-3.03c0,.39.13.71.38.96.24.25.54.38.9.38.17,0,.34-.03.5-.09.16-.06.3-.14.41-.24.11-.1.24-.26.37-.48ZM57.2,96.04c-.06-.23-.14-.42-.25-.55-.11-.14-.26-.25-.44-.33-.18-.08-.37-.13-.57-.13-.33,0-.61.11-.85.32-.17.15-.31.39-.39.7h2.51Z"/>
        <path d="M62.58,93.39v.42c-.16-.07-.29-.1-.41-.1-.08,0-.15.02-.21.05-.06.03-.09.07-.11.12s-.02.16-.02.35v.46s.7,0,.7,0v.37h-.7v2.99h-.44v-2.99h-.44v-.37h.44v-.53c0-.24.02-.41.07-.52.04-.1.12-.19.23-.25s.24-.09.39-.09c.14,0,.31.03.5.09Z"/>
        <path d="M65.25,94.61c.52,0,.95.19,1.29.56.31.34.47.75.47,1.22s-.16.88-.49,1.23c-.33.35-.75.53-1.26.53s-.94-.18-1.27-.53c-.33-.35-.49-.76-.49-1.23s.15-.87.46-1.21c.34-.38.77-.57,1.29-.57ZM65.25,95.03c-.36,0-.67.13-.93.4-.26.27-.39.59-.39.97,0,.24.06.47.18.68s.28.37.48.49c.2.11.42.17.66.17s.46-.06.66-.17c.2-.11.36-.28.48-.49s.18-.44.18-.68c0-.38-.13-.7-.39-.97-.26-.27-.57-.4-.93-.4Z"/>
        <path d="M68.12,94.69h.44v.49c.13-.19.27-.34.42-.44s.3-.14.46-.14c.12,0,.25.04.38.11l-.23.37c-.09-.04-.17-.06-.23-.06-.14,0-.28.06-.42.18s-.24.3-.31.55c-.05.19-.08.58-.08,1.16v1.14h-.44v-3.37Z"/>
        <path d="M72.9,93.51h.46v4.55h-.46v-4.55Z"/>
        <path d="M74.81,94.69h.43v.6c.17-.23.37-.4.58-.52s.44-.17.69-.17.47.06.67.19.34.3.43.52.14.55.14,1.01v1.73h-.43v-1.61c0-.39-.02-.65-.05-.78-.05-.22-.15-.39-.29-.5-.14-.11-.33-.17-.56-.17-.26,0-.5.09-.7.26-.21.17-.34.39-.41.64-.04.17-.06.47-.06.92v1.24h-.43v-3.37Z"/>
        <path d="M82.51,93.39v4.67h-.43v-.58c-.18.22-.39.39-.61.5-.23.11-.47.17-.74.17-.48,0-.88-.17-1.22-.52-.34-.35-.51-.77-.51-1.26s.17-.9.51-1.24c.34-.34.75-.52,1.23-.52.28,0,.53.06.75.18.22.12.42.29.59.53v-1.92h.43ZM80.78,95.02c-.24,0-.46.06-.67.18-.2.12-.37.29-.49.5-.12.21-.18.44-.18.68s.06.46.18.68c.12.22.28.38.49.51s.43.18.66.18.46-.06.67-.18c.21-.12.38-.28.49-.49.11-.2.17-.43.17-.69,0-.39-.13-.72-.38-.98-.26-.26-.57-.39-.95-.39Z"/>
        <path d="M84.12,93.31c.1,0,.18.04.25.11.07.07.1.15.1.25s-.03.18-.1.25c-.07.07-.15.11-.25.11s-.18-.04-.25-.11c-.07-.07-.11-.15-.11-.25s.04-.18.11-.25c.07-.07.15-.11.25-.11ZM83.9,94.69h.43v3.37h-.43v-3.37Z"/>
        <path d="M89.07,94.69v3.37h-.43v-.58c-.18.22-.39.39-.61.5-.23.11-.47.17-.74.17-.48,0-.88-.17-1.22-.52-.34-.35-.51-.77-.51-1.26s.17-.9.51-1.24c.34-.34.75-.52,1.23-.52.28,0,.53.06.75.18.22.12.42.29.59.53v-.62h.43ZM87.33,95.02c-.24,0-.46.06-.67.18-.2.12-.37.29-.49.5-.12.21-.18.44-.18.68s.06.46.18.68c.12.22.29.38.49.51s.42.18.66.18.46-.06.67-.18c.21-.12.38-.28.49-.49s.17-.43.17-.69c0-.39-.13-.72-.38-.98-.26-.26-.57-.39-.95-.39Z"/>
        <path d="M91.11,95.09l-.24-.14c.08-.16.13-.28.16-.37.03-.09.05-.2.06-.34h-.27v-.85h.56v.53c0,.27-.02.48-.05.63-.04.15-.11.33-.21.54Z"/>
        <path d="M94.91,95.06l-.28.29c-.23-.23-.46-.34-.68-.34-.14,0-.26.05-.36.14s-.15.2-.15.33c0,.11.04.21.12.31.08.1.26.22.52.36.32.17.54.33.66.48.11.16.17.33.17.53,0,.28-.1.51-.29.7s-.44.29-.73.29c-.19,0-.38-.04-.56-.13-.18-.08-.32-.2-.44-.35l.27-.31c.22.25.46.37.7.37.17,0,.32-.06.44-.17s.18-.24.18-.39c0-.12-.04-.23-.12-.33-.08-.09-.26-.21-.55-.36-.3-.16-.51-.31-.62-.46-.11-.15-.17-.33-.17-.52,0-.26.09-.47.26-.64.17-.17.4-.25.66-.25.31,0,.62.15.94.46Z"/>
        <path d="M98.46,98.06v-4.55h.94c.68,0,1.18.05,1.48.16.44.15.79.42,1.04.81.25.38.37.84.37,1.37,0,.46-.1.86-.29,1.2-.2.35-.45.6-.77.77-.31.17-.76.25-1.32.25h-1.45ZM98.89,97.63h.53c.63,0,1.07-.04,1.31-.12.34-.11.61-.31.81-.6.2-.29.29-.64.29-1.06,0-.44-.11-.81-.32-1.13-.21-.31-.51-.52-.89-.64-.29-.09-.75-.13-1.41-.13h-.32v3.68Z"/>
        <path d="M103.73,93.31c.1,0,.18.04.25.11.07.07.1.15.1.25s-.03.18-.1.25c-.07.07-.15.11-.25.11s-.18-.04-.25-.11c-.07-.07-.11-.15-.11-.25s.04-.18.11-.25c.07-.07.15-.11.25-.11ZM103.52,94.69h.43v3.37h-.43v-3.37Z"/>
        <path d="M108.23,94.69h.43v2.68c0,.47-.04.82-.12,1.04-.11.31-.31.55-.59.71-.28.17-.62.25-1.01.25-.29,0-.55-.04-.78-.12-.23-.08-.42-.19-.56-.33s-.28-.34-.4-.6h.47c.13.22.29.39.5.5.2.11.45.16.75.16s.54-.06.75-.17c.2-.11.35-.25.44-.42s.13-.44.13-.81v-.17c-.16.21-.36.36-.6.48s-.49.17-.75.17c-.31,0-.6-.08-.87-.23s-.48-.36-.63-.62c-.15-.26-.22-.55-.22-.86s.08-.6.23-.87c.16-.27.37-.48.64-.64.27-.16.56-.24.87-.24.25,0,.49.05.71.16.22.1.43.28.63.52v-.58ZM106.95,95.02c-.25,0-.47.06-.68.18-.21.12-.38.28-.5.49s-.18.44-.18.68c0,.37.12.67.37.92.25.24.57.36.96.36s.72-.12.96-.36c.24-.24.36-.55.36-.94,0-.25-.06-.48-.17-.68s-.27-.36-.47-.47-.42-.17-.66-.17Z"/>
        <path d="M110.22,93.31c.1,0,.18.04.25.11.07.07.1.15.1.25s-.03.18-.1.25c-.07.07-.15.11-.25.11s-.18-.04-.25-.11c-.07-.07-.11-.15-.11-.25s.04-.18.11-.25c.07-.07.15-.11.25-.11ZM110,94.69h.43v3.37h-.43v-3.37Z"/>
        <path d="M112.19,93.44h.43v1.25h.69v.37h-.69v2.99h-.43v-2.99h-.59v-.37h.59v-1.25Z"/>
        <path d="M117.79,94.69v3.37h-.43v-.58c-.18.22-.39.39-.61.5-.23.11-.47.17-.74.17-.48,0-.88-.17-1.22-.52-.34-.35-.51-.77-.51-1.26s.17-.9.51-1.24c.34-.34.75-.52,1.23-.52.28,0,.53.06.75.18.22.12.42.29.59.53v-.62h.43ZM116.06,95.02c-.24,0-.46.06-.67.18-.2.12-.37.29-.49.5-.12.21-.18.44-.18.68s.06.46.18.68c.12.22.29.38.49.51s.42.18.66.18.46-.06.67-.18c.21-.12.38-.28.49-.49s.17-.43.17-.69c0-.39-.13-.72-.38-.98-.26-.26-.57-.39-.95-.39Z"/>
        <path d="M119.18,93.39h.43v4.67h-.43v-4.67Z"/>
        <path d="M123.29,93.51h2.28v.45h-1.83v1.43h1.83v.45h-1.83v2.24h-.46v-4.55Z"/>
        <path d="M126.71,94.69h.43v1.57c0,.38.02.65.06.79.06.21.18.37.35.49.17.12.38.18.62.18s.45-.06.62-.17c.17-.12.29-.27.35-.46.04-.13.07-.41.07-.83v-1.57h.44v1.65c0,.46-.05.81-.16,1.05s-.27.42-.49.55c-.22.13-.49.2-.82.2s-.6-.07-.82-.2c-.22-.13-.38-.32-.49-.56-.11-.24-.16-.6-.16-1.08v-1.62Z"/>
        <path d="M131.48,93.44h.43v1.25h.69v.37h-.69v2.99h-.43v-2.99h-.59v-.37h.59v-1.25Z"/>
        <path d="M133.67,94.69h.43v1.57c0,.38.02.65.06.79.06.21.18.37.35.49.17.12.38.18.62.18s.45-.06.62-.17c.17-.12.29-.27.35-.46.04-.13.07-.41.07-.83v-1.57h.44v1.65c0,.46-.05.81-.16,1.05s-.27.42-.49.55c-.22.13-.49.2-.82.2s-.6-.07-.82-.2c-.22-.13-.38-.32-.49-.56-.11-.24-.16-.6-.16-1.08v-1.62Z"/>
        <path d="M137.89,94.69h.44v.49c.13-.19.27-.34.42-.44s.3-.14.46-.14c.12,0,.25.04.38.11l-.23.37c-.09-.04-.17-.06-.23-.06-.14,0-.28.06-.42.18s-.24.3-.31.55c-.05.19-.08.58-.08,1.16v1.14h-.44v-3.37Z"/>
        <path d="M143.25,96.94l.37.19c-.12.24-.26.43-.42.57-.16.14-.33.25-.53.33s-.42.11-.67.11c-.55,0-.98-.18-1.29-.54-.31-.36-.46-.77-.46-1.22,0-.43.13-.81.39-1.14.33-.42.78-.64,1.34-.64s1.03.22,1.38.65c.24.31.37.69.37,1.15h-3.03c0,.39.13.71.38.96.24.25.54.38.9.38.17,0,.34-.03.5-.09.16-.06.3-.14.41-.24.11-.1.24-.26.37-.48ZM143.25,96.04c-.06-.23-.14-.42-.25-.55-.11-.14-.26-.25-.44-.33-.18-.08-.37-.13-.57-.13-.33,0-.61.11-.85.32-.17.15-.31.39-.39.7h2.51Z"/>
      </g>
      <g class="cls-text">
        <path d="M10.28,86.91c-.23.38-.51.73-.83,1.05-.52.52-1.12.92-1.8,1.2-.68.28-1.39.42-2.12.42s-1.44-.14-2.12-.42c-.68-.28-1.28-.68-1.8-1.2s-.92-1.12-1.2-1.8c-.28-.68-.42-1.39-.42-2.12s.14-1.44.42-2.12c.28-.68.68-1.28,1.2-1.8s1.12-.92,1.8-1.2c.68-.28,1.39-.42,2.12-.42s1.44.14,2.12.42c.68.28,1.28.68,1.8,1.2.43.43.78.92,1.05,1.46l-1.98.98c-.16-.31-.37-.6-.63-.87-.65-.65-1.43-.97-2.35-.97s-1.7.32-2.35.97c-.65.65-.97,1.43-.97,2.35s.32,1.7.97,2.35c.65.65,1.43.97,2.35.97s1.7-.33,2.35-.98c.2-.2.36-.4.49-.62l1.9,1.14Z"/>
        <path d="M13.64,84.36l-.21-.31-3.67-5.53h2.63l2.35,3.55,2.35-3.55h2.63l-3.67,5.53-.21.31v5.22h-2.21v-5.22Z"/>
        <path d="M20.46,80.73v-2.21h5.53c.92,0,1.7.32,2.35.97.65.65.97,1.43.97,2.35,0,.85-.28,1.59-.85,2.21.56.62.85,1.36.85,2.21,0,.92-.32,1.7-.97,2.35-.65.65-1.43.97-2.35.97h-5.53v-6.64h5.53c.3,0,.57-.11.78-.32.22-.22.32-.48.32-.78s-.11-.57-.32-.78c-.22-.22-.48-.32-.78-.32h-5.53ZM22.67,85.16v2.21h3.32c.3,0,.57-.11.78-.32.22-.22.32-.48.32-.78s-.11-.57-.32-.78c-.22-.22-.48-.32-.78-.32h-3.32Z"/>
        <path d="M30.77,80.73v-2.21h7.74v2.21h-7.74ZM38.51,82.95v2.21h-5.53v2.21h5.53v2.21h-7.74v-6.64h7.74Z"/>
        <path d="M40.6,80.73v-2.21h5.53c.92,0,1.7.32,2.35.97.65.65.97,1.43.97,2.35s-.32,1.7-.97,2.35c-.65.65-1.43.97-2.35.97h-.55l3.87,4.43h-2.9l-3.73-4.15v4.15h-2.21v-6.64h5.53c.3,0,.57-.11.78-.32.22-.22.32-.48.32-.78s-.11-.57-.32-.78c-.22-.22-.48-.32-.78-.32h-5.53Z"/>
        <path d="M56.8,80.73v-2.21h7.74v2.21h-7.74ZM64.54,82.95v2.21h-5.53v4.43h-2.21v-6.64h7.74Z"/>
        <path d="M68.54,89.58h-2.21v-11.06h2.21v11.06Z"/>
        <path d="M70.67,80.73v-2.21h5.53c.92,0,1.7.32,2.35.97.65.65.97,1.43.97,2.35s-.32,1.7-.97,2.35c-.65.65-1.43.97-2.35.97h-.55l3.87,4.43h-2.9l-3.73-4.15v4.15h-2.21v-6.64h5.53c.3,0,.57-.11.78-.32.22-.22.32-.48.32-.78s-.11-.57-.32-.78c-.22-.22-.48-.32-.78-.32h-5.53Z"/>
        <path d="M81.66,86.66c.07.11.32.27.73.48.46.24.95.36,1.47.38h.08c.34,0,.68-.07,1.01-.21.33-.14.51-.39.52-.74v-.03c0-.29-.13-.54-.39-.76-.26-.22-.57-.42-.93-.62-.36-.2-.73-.38-1.12-.56-.47-.21-.89-.46-1.27-.75-.38-.29-.68-.63-.89-1.02-.2-.36-.29-.78-.29-1.26v-.12c.02-.6.21-1.14.56-1.6.36-.46.83-.82,1.43-1.08.55-.24,1.15-.36,1.79-.36h.13c.83.03,1.54.22,2.13.58.27.17.46.3.55.41l-1,1.86c-.04-.06-.26-.17-.65-.34-.39-.17-.75-.25-1.06-.26h-.07c-.35,0-.65.08-.92.25-.26.17-.4.41-.41.71v.02c0,.31.14.55.43.72.29.17.64.34,1.06.51.21.09.45.19.72.31.58.25,1.08.55,1.5.88.42.33.74.71.95,1.12.2.39.3.83.3,1.31v.08c-.02.67-.23,1.25-.62,1.73-.39.48-.9.84-1.53,1.1-.58.24-1.21.35-1.88.35h-.18c-.91-.03-1.73-.23-2.45-.61-.36-.19-.61-.36-.75-.5l1.06-1.98Z"/>
        <path d="M96.87,78.52v2.21h-3.32v8.85h-2.21v-8.85h-3.32v-2.21h8.85Z"/>
        <path d="M106.42,89.58h-2.21v-11.06h2.21v11.06Z"/>
        <path d="M110.76,83.36v6.22h-2.21v-11.62l6.64,6.78v-6.22h2.21v11.62l-6.64-6.78Z"/>
        <path d="M119.53,80.73v-2.21h4.43c.73,0,1.44.14,2.12.42.68.28,1.28.68,1.8,1.2s.92,1.12,1.2,1.8.42,1.39.42,2.12-.14,1.44-.42,2.12c-.28.68-.68,1.28-1.2,1.8s-1.12.92-1.8,1.2c-.68.28-1.39.42-2.12.42h-4.43v-6.64h2.21v4.43h2.21c.92,0,1.7-.32,2.35-.97.65-.65.97-1.43.97-2.35s-.32-1.7-.97-2.35c-.65-.65-1.43-.97-2.35-.97h-4.43Z"/>
        <path d="M133.06,89.58h-2.21v-11.06h2.21v11.06Z"/>
        <path d="M133.85,89.58l4.98-11.62,4.98,11.62h-2.35l-2.63-5.95-2.63,5.95h-2.35Z"/>
      </g>
    </g>
  </g>
</svg>